<svg width="160" height="64" viewBox="0 0 160 64" fill="none" xmlns="http://www.w3.org/2000/svg">
<path d="M14.0568 23.3482V18.9619L7.02841 14.9038L0 18.9619V23.3482L7.02841 27.4063L14.0568 23.3482Z" fill="#10D46B"/>
<path d="M22.2012 33.9072V29.5209L15.1727 25.4628L8.14433 29.5209V33.9072L15.1727 37.9653L22.2012 33.9072Z" fill="#10D46B"/>
<path d="M14.0568 44.3795V39.9932L7.02841 35.9351L0 39.9932V44.3795L7.02841 48.4376L14.0568 44.3795Z" fill="#10D46B"/>
<path d="M132.091 27.7688V31.047C128.892 30.8314 127.733 32.019 127.733 35.8337V40.6679H123.465V30.5728H119.099V40.6679H114.836V30.5728H113.484V27.6395H114.836C114.836 27.2624 114.836 26.8572 114.857 26.452C115.047 24.0812 116.564 22.6135 120.474 22.6135C120.953 22.6138 121.431 22.6768 121.894 22.801V25.5748C120.355 25.314 119.241 25.7645 119.125 26.868C119.101 27.1783 119.099 27.34 119.099 27.6288H127.733V30.3831L128.631 28.6072C129.319 27.8486 130.319 27.7688 131.123 27.7688C131.445 27.745 131.768 27.745 132.091 27.7688Z" fill="black"/>
<path d="M61.2782 27.6309C57.2091 27.6309 54.597 30.1655 54.597 34.1634C54.597 38.1614 57.2005 40.6981 61.2782 40.6981C65.3559 40.6981 67.9594 38.1398 67.9594 34.1634C67.9594 30.187 65.3451 27.6309 61.2782 27.6309ZM64.677 35.2238L61.2782 37.1872L57.8815 35.2238V33.103L61.2782 31.1439L64.677 33.103V35.2238Z" fill="black"/>
<path d="M53.5323 28.6913L53.5582 28.9434H49.0322L48.9826 28.6913C48.6054 26.8292 47.4739 25.9477 45.6355 25.9477C43.4803 25.9477 41.8337 27.7602 41.8337 31.5103C41.8337 35.8898 43.6462 37.3747 45.6614 37.3747C47.4222 37.3747 48.5559 36.2971 48.933 34.3789L48.9826 34.1268H53.5086L53.4849 34.3789C53.0538 38.5579 49.8598 40.6981 45.5105 40.6981C40.8552 40.6981 37.1051 37.6808 37.1051 31.7862C37.1051 25.7515 40.9845 22.6243 45.6872 22.6243C50.6378 22.6243 53.1788 25.2666 53.5323 28.6913Z" fill="black"/>
<path d="M77.9662 27.6848V31.1073C74.8238 30.8918 73.6837 32.0621 73.6837 35.81V40.6679H69.4939V27.6395H73.6837V30.4543L74.5674 28.7085C74.8802 28.3712 75.2579 28.1005 75.6779 27.9128C76.0979 27.725 76.5514 27.624 77.0114 27.6158C77.331 27.6128 77.6503 27.6359 77.9662 27.6848Z" fill="black"/>
<path d="M91.3739 35.2044H82.7141C82.9297 37.2756 83.8327 37.8575 85.0181 37.8575C86.2035 37.8575 86.9276 37.2519 87.0914 36.2971H91.2101C90.4881 39.114 88.1604 40.6981 84.9728 40.6981C81.4102 40.6981 78.5718 38.5795 78.5718 34.2022C78.5718 30.5706 81.0611 27.6158 85.2056 27.6158C89.3501 27.6158 91.4515 30.7819 91.4515 33.9932C91.4468 34.398 91.421 34.8023 91.3739 35.2044ZM82.8542 32.644H87.0677C86.8349 31.1763 86.1129 30.4543 84.9965 30.4543C83.8801 30.4543 83.1344 31.1073 82.8542 32.644Z" fill="black"/>
<path d="M112.142 33.3423V40.6981L107.952 40.6679V34.047C107.952 33.6505 107.952 32.9694 107.907 32.3466C107.814 31.159 107.161 30.4607 105.904 30.4607C104.648 30.4607 103.717 31.6957 103.717 34.5126V40.6744H99.5314V27.6395H103.721V29.8724L104.838 28.3378C105.684 27.8363 106.656 27.5859 107.639 27.6158C110.2 27.6158 111.713 28.8249 112.038 30.9909C112.13 31.7711 112.165 32.557 112.142 33.3423Z" fill="black"/>
<path d="M140.317 38.5558L139.804 39.8662C138.881 40.4324 137.816 40.7233 136.733 40.7046C134.683 40.7046 132.752 39.4243 132.752 37.0256C132.752 34.3725 135.265 32.7431 139.479 32.7431H140.272V32.5578C140.276 32.2539 140.26 31.95 140.224 31.6483C140.155 31.0211 139.642 30.4607 138.735 30.4607C137.757 30.4607 137.198 31.0901 137.127 32.1612L133.17 32.1849C133.194 29.2754 135.778 27.6223 138.92 27.6223C142.854 27.6223 144.205 29.368 144.39 31.6267C144.438 32.2539 144.459 32.9759 144.459 33.7431V37.2346C144.458 38.388 144.536 39.5402 144.692 40.683H140.591L140.317 38.5558ZM140.272 35.9264V35.1117C138.386 34.9716 137.039 35.4609 137.039 36.6937C137.039 37.4394 137.621 37.8575 138.459 37.8575C139.298 37.8575 140.272 37.2282 140.272 35.9264Z" fill="black"/>
<path d="M97.2706 22.6243H92.9601V40.7282H97.2706V22.6243Z" fill="black"/>
</svg>
