<svg width="160" height="64" viewBox="0 0 160 64" fill="none" xmlns="http://www.w3.org/2000/svg">
<path d="M14.0568 23.6773V19.291L7.02841 15.2329L0 19.291V23.6773L7.02841 27.7354L14.0568 23.6773Z" fill="#10D46B"/>
<path d="M22.2012 34.2363V29.85L15.1727 25.7919L8.14433 29.85V34.2363L15.1727 38.2944L22.2012 34.2363Z" fill="#10D46B"/>
<path d="M14.0568 44.7086V40.3223L7.02841 36.2642L0 40.3223V44.7086L7.02841 48.7667L14.0568 44.7086Z" fill="#10D46B"/>
<path d="M132.091 28.0977V31.3758C128.892 31.1603 127.733 32.3478 127.733 36.1626V40.9968H123.465V30.9017H119.099V40.9968H114.836V30.9017H113.484V27.9684H114.836C114.836 27.5912 114.836 27.186 114.857 26.7809C115.047 24.4101 116.564 22.9424 120.474 22.9424C120.953 22.9426 121.431 23.0057 121.894 23.1299V25.9037C120.355 25.6429 119.241 26.0933 119.125 27.1968C119.101 27.5072 119.099 27.6688 119.099 27.9576H127.733V30.712L128.631 28.9361C129.319 28.1774 130.319 28.0977 131.123 28.0977C131.445 28.0739 131.768 28.0739 132.091 28.0977Z" fill="white"/>
<path d="M61.2782 27.9598C57.2091 27.9598 54.597 30.4943 54.597 34.4923C54.597 38.4902 57.2005 41.0269 61.2782 41.0269C65.3559 41.0269 67.9594 38.4687 67.9594 34.4923C67.9594 30.5159 65.3451 27.9598 61.2782 27.9598ZM64.677 35.5527L61.2782 37.5161L57.8815 35.5527V33.4319L61.2782 31.4728L64.677 33.4319V35.5527Z" fill="white"/>
<path d="M53.5323 29.0201L53.5582 29.2723H49.0322L48.9826 29.0201C48.6054 27.158 47.4739 26.2765 45.6355 26.2765C43.4803 26.2765 41.8337 28.0891 41.8337 31.8392C41.8337 36.2186 43.6462 37.7036 45.6614 37.7036C47.4222 37.7036 48.5559 36.626 48.933 34.7078L48.9826 34.4556H53.5086L53.4849 34.7078C53.0538 38.8868 49.8598 41.0269 45.5105 41.0269C40.8552 41.0269 37.1051 38.0096 37.1051 32.1151C37.1051 26.0804 40.9845 22.9532 45.6872 22.9532C50.6378 22.9532 53.1788 25.5955 53.5323 29.0201Z" fill="white"/>
<path d="M77.9662 28.0136V31.4362C74.8238 31.2206 73.6837 32.3909 73.6837 36.1389V40.9968H69.4939V27.9684H73.6837V30.7831L74.5674 29.0374C74.8802 28.7001 75.2579 28.4294 75.6779 28.2416C76.0979 28.0539 76.5514 27.9529 77.0114 27.9447C77.331 27.9417 77.6503 27.9647 77.9662 28.0136Z" fill="white"/>
<path d="M91.3739 35.5333H82.7141C82.9297 37.6044 83.8327 38.1863 85.0181 38.1863C86.2035 38.1863 86.9276 37.5807 87.0914 36.626H91.2101C90.4881 39.4428 88.1604 41.0269 84.9728 41.0269C81.4102 41.0269 78.5718 38.9083 78.5718 34.5311C78.5718 30.8995 81.0611 27.9447 85.2056 27.9447C89.3501 27.9447 91.4515 31.1107 91.4515 34.322C91.4468 34.7268 91.421 35.1311 91.3739 35.5333ZM82.8542 32.9728H87.0677C86.8349 31.5051 86.1129 30.7831 84.9965 30.7831C83.8801 30.7831 83.1344 31.4362 82.8542 32.9728Z" fill="white"/>
<path d="M112.142 33.6711V41.0269L107.952 40.9968V34.3759C107.952 33.9793 107.952 33.2983 107.907 32.6754C107.814 31.4879 107.161 30.7896 105.904 30.7896C104.648 30.7896 103.717 32.0245 103.717 34.8414V41.0032H99.5314V27.9684H103.721V30.2012L104.838 28.6667C105.684 28.1652 106.656 27.9148 107.639 27.9447C110.2 27.9447 111.713 29.1538 112.038 31.3198C112.13 32.1 112.165 32.8859 112.142 33.6711Z" fill="white"/>
<path d="M140.317 38.8846L139.804 40.195C138.881 40.7613 137.816 41.0521 136.733 41.0334C134.683 41.0334 132.752 39.7532 132.752 37.3544C132.752 34.7013 135.265 33.072 139.479 33.072H140.272V32.8866C140.276 32.5827 140.26 32.2789 140.224 31.9771C140.155 31.3499 139.642 30.7896 138.735 30.7896C137.757 30.7896 137.198 31.4189 137.127 32.4901L133.17 32.5138C133.194 29.6042 135.778 27.9511 138.92 27.9511C142.854 27.9511 144.205 29.6969 144.39 31.9556C144.438 32.5827 144.459 33.3047 144.459 34.072V37.5635C144.458 38.7169 144.536 39.869 144.692 41.0119H140.591L140.317 38.8846ZM140.272 36.2553V35.4406C138.386 35.3005 137.039 35.7897 137.039 37.0225C137.039 37.7682 137.621 38.1863 138.459 38.1863C139.298 38.1863 140.272 37.557 140.272 36.2553Z" fill="white"/>
<path d="M97.2706 22.9531H92.9601V41.0571H97.2706V22.9531Z" fill="white"/>
</svg>
