<svg width="25" height="25" viewBox="0 0 25 25" fill="none" xmlns="http://www.w3.org/2000/svg">
<path d="M21 11.8V7.54001C21 3.51001 20.06 2.5 16.28 2.5H8.72C4.94 2.5 4 3.51001 4 7.54001V18.8C4 21.46 5.46001 22.09 7.23001 20.19L7.23999 20.18C8.05999 19.31 9.30999 19.38 10.02 20.33L11.03 21.68" stroke="#F3A753" stroke-width="1.5" stroke-linecap="round" stroke-linejoin="round"/>
<path d="M18.7 21.9C20.4673 21.9 21.9 20.4673 21.9 18.7C21.9 16.9327 20.4673 15.5 18.7 15.5C16.9327 15.5 15.5 16.9327 15.5 18.7C15.5 20.4673 16.9327 21.9 18.7 21.9Z" stroke="#F3A753" stroke-width="1.5" stroke-linecap="round" stroke-linejoin="round"/>
<path d="M22.5 22.5L21.5 21.5" stroke="#F3A753" stroke-width="1.5" stroke-linecap="round" stroke-linejoin="round"/>
<path d="M8.5 7.5H16.5" stroke="#F3A753" stroke-width="1.5" stroke-linecap="round" stroke-linejoin="round"/>
<path d="M9.5 11.5H15.5" stroke="#F3A753" stroke-width="1.5" stroke-linecap="round" stroke-linejoin="round"/>
</svg>
