<svg width="25" height="25" viewBox="0 0 25 25" fill="none" xmlns="http://www.w3.org/2000/svg">
<path d="M19.25 13.15V16.85C19.25 19.97 16.34 22.5 12.75 22.5C9.16 22.5 6.25 19.97 6.25 16.85V13.15C6.25 16.27 9.16 18.5 12.75 18.5C16.34 18.5 19.25 16.27 19.25 13.15Z" stroke="#1219C3" stroke-width="1.5" stroke-linecap="round" stroke-linejoin="round"/>
<path d="M19.25 8.15C19.25 9.06 19 9.9 18.56 10.62C17.49 12.38 15.29 13.5 12.75 13.5C10.21 13.5 8.01 12.38 6.94 10.62C6.5 9.9 6.25 9.06 6.25 8.15C6.25 6.59 6.97999 5.18 8.14999 4.16C9.32999 3.13 10.95 2.5 12.75 2.5C14.55 2.5 16.17 3.13 17.35 4.15C18.52 5.18 19.25 6.59 19.25 8.15Z" stroke="#1219C3" stroke-width="1.5" stroke-linecap="round" stroke-linejoin="round"/>
<path d="M19.25 8.15V13.15C19.25 16.27 16.34 18.5 12.75 18.5C9.16 18.5 6.25 16.27 6.25 13.15V8.15C6.25 5.03 9.16 2.5 12.75 2.5C14.55 2.5 16.17 3.13 17.35 4.15C18.52 5.18 19.25 6.59 19.25 8.15Z" stroke="#1219C3" stroke-width="1.5" stroke-linecap="round" stroke-linejoin="round"/>
</svg>
