<svg width="65" height="64" viewBox="0 0 65 64" fill="none" xmlns="http://www.w3.org/2000/svg">
<rect x="8.5" y="8" width="48" height="48" rx="24" fill="#043F2D"/>
<rect x="4.5" y="4" width="56" height="56" rx="28" stroke="#01402D" stroke-opacity="0.18" stroke-width="8"/>
<path d="M31.8333 25H35.3333L39.1717 21.15C39.2801 21.0406 39.4092 20.9539 39.5513 20.8946C39.6935 20.8354 39.846 20.8049 40 20.8049C40.154 20.8049 40.3065 20.8354 40.4487 20.8946C40.5908 20.9539 40.7199 21.0406 40.8283 21.15L43.8383 24.1717C44.0556 24.3903 44.1776 24.6859 44.1776 24.9942C44.1776 25.3024 44.0556 25.5981 43.8383 25.8167L41.1667 28.5H31.8333V30.8333C31.8333 31.1428 31.7104 31.4395 31.4916 31.6583C31.2728 31.8771 30.9761 32 30.6667 32C30.3572 32 30.0605 31.8771 29.8417 31.6583C29.6229 31.4395 29.5 31.1428 29.5 30.8333V27.3333C29.5 26.7145 29.7458 26.121 30.1834 25.6834C30.621 25.2458 31.2145 25 31.8333 25ZM24.8333 30.8333V35.5L22.1617 38.1717C21.9444 38.3903 21.8224 38.6859 21.8224 38.9942C21.8224 39.3024 21.9444 39.5981 22.1617 39.8167L25.1717 42.8383C25.2801 42.9477 25.4092 43.0345 25.5513 43.0937C25.6935 43.1529 25.846 43.1834 26 43.1834C26.154 43.1834 26.3065 43.1529 26.4487 43.0937C26.5908 43.0345 26.7199 42.9477 26.8283 42.8383L31.8333 37.8333H36.5C36.8094 37.8333 37.1062 37.7104 37.325 37.4916C37.5437 37.2728 37.6667 36.9761 37.6667 36.6667V35.5H38.8333C39.1427 35.5 39.4395 35.3771 39.6583 35.1583C39.8771 34.9395 40 34.6427 40 34.3333V33.1667H41.1667C41.4761 33.1667 41.7728 33.0437 41.9916 32.825C42.2104 32.6062 42.3333 32.3094 42.3333 32V30.8333H34.1667V32C34.1667 32.6188 33.9208 33.2123 33.4832 33.6499C33.0457 34.0875 32.4522 34.3333 31.8333 34.3333H29.5C28.8812 34.3333 28.2877 34.0875 27.8501 33.6499C27.4125 33.2123 27.1667 32.6188 27.1667 32V28.5L24.8333 30.8333Z" fill="white"/>
</svg>
