<svg width="25" height="25" viewBox="0 0 25 25" fill="none" xmlns="http://www.w3.org/2000/svg">
<path d="M18.29 14.05C17.87 14.46 17.63 15.05 17.69 15.68C17.78 16.76 18.77 17.55 19.85 17.55H21.75V18.74C21.75 20.81 20.06 22.5 17.99 22.5H7.88C8.19 22.24 8.46 21.92 8.67 21.56C9.04 20.96 9.25 20.25 9.25 19.5C9.25 17.29 7.46 15.5 5.25 15.5C4.31 15.5 3.44 15.83 2.75 16.38V12.01C2.75 9.94001 4.43999 8.25 6.50999 8.25H17.99C20.06 8.25 21.75 9.94001 21.75 12.01V13.45H19.73C19.17 13.45 18.66 13.67 18.29 14.05Z" stroke="#1E9922" stroke-width="1.5" stroke-linecap="round" stroke-linejoin="round"/>
<path d="M2.75 12.9101V8.3401C2.75 7.1501 3.48 6.09006 4.59 5.67006L12.53 2.67006C13.77 2.20006 15.1 3.12009 15.1 4.45009V8.25008" stroke="#1E9922" stroke-width="1.5" stroke-linecap="round" stroke-linejoin="round"/>
<path d="M22.8088 14.4702V16.5302C22.8088 17.0802 22.3688 17.5302 21.8088 17.5502H19.8488C18.7688 17.5502 17.7788 16.7602 17.6888 15.6802C17.6288 15.0502 17.8688 14.4602 18.2888 14.0502C18.6588 13.6702 19.1688 13.4502 19.7288 13.4502H21.8088C22.3688 13.4702 22.8088 13.9202 22.8088 14.4702Z" stroke="#1E9922" stroke-width="1.5" stroke-linecap="round" stroke-linejoin="round"/>
<path d="M7.25 12.5H14.25" stroke="#1E9922" stroke-width="1.5" stroke-linecap="round" stroke-linejoin="round"/>
<path d="M9.25 19.5C9.25 20.25 9.04 20.96 8.67 21.56C8.46 21.92 8.19 22.24 7.88 22.5C7.18 23.13 6.26 23.5 5.25 23.5C3.79 23.5 2.52 22.72 1.83 21.56C1.46 20.96 1.25 20.25 1.25 19.5C1.25 18.24 1.83 17.11 2.75 16.38C3.44 15.83 4.31 15.5 5.25 15.5C7.46 15.5 9.25 17.29 9.25 19.5Z" stroke="#1E9922" stroke-width="1.5" stroke-miterlimit="10" stroke-linecap="round" stroke-linejoin="round"/>
<path d="M3.69141 19.4995L4.6814 20.4895L6.8114 18.5195" stroke="#1E9922" stroke-width="1.5" stroke-linecap="round" stroke-linejoin="round"/>
</svg>
