<svg xmlns="http://www.w3.org/2000/svg" viewBox="0 0 500 500"><path d="M467 187.7a225.58 225.58 0 00-9.61-22.59c-31.65-64.48-90.65-108.2-163.28-119.69q-4.69-.75-9.42-1.31c-59.33-7.11-142.32 1.76-176.16 56.56-17.57 28.46-10.36 64.35-29 92-24.13 35.89-55.15 53.82-60.89 109.83-4.23 41.21-2.26 85.75 26.88 118.62 34.34 38.75 93.27 52.09 143.61 44.65 48.86-7.21 92.6-31.34 135.33-54 40.56-21.51 87-37.13 119.82-70 41.44-41.53 41.41-102.24 22.72-154.07z" fill="#92e3a9"/><path d="M467 187.7a225.58 225.58 0 00-9.61-22.59c-31.65-64.48-90.65-108.2-163.28-119.69q-4.69-.75-9.42-1.31c-59.33-7.11-142.32 1.76-176.16 56.56-17.57 28.46-10.36 64.35-29 92-24.13 35.89-55.15 53.82-60.89 109.83-4.23 41.21-2.26 85.75 26.88 118.62 34.34 38.75 93.27 52.09 143.61 44.65 48.86-7.21 92.6-31.34 135.33-54 40.56-21.51 87-37.13 119.82-70 41.44-41.53 41.41-102.24 22.72-154.07z" fill="#fff" opacity=".7"/><g fill="none" stroke="#969696" stroke-miterlimit="10"><path d="M104.56 79.73v20.4a3.88 3.88 0 01-3.88 3.88H75.89a3.89 3.89 0 01-3.89-3.88V75.34a3.89 3.89 0 013.89-3.89h22.16"/><path d="M99.51 80.51H77.37a.91.91 0 00-.91.91v12.74a.91.91 0 00.91.91h22.14a.91.91 0 00.91-.91V81.42a.91.91 0 00-.91-.91zm.29 2.76l-7.06 4.36L99 92.29a.81.81 0 01.18 1.14.82.82 0 01-.66.34.81.81 0 01-.49-.17l-6.82-5-2.53 1.56-3-1.64-6.88 5.08a.83.83 0 01-.49.17.82.82 0 01-.66-.34.81.81 0 01.18-1.14l6.34-4.69-7.2-4a.82.82 0 11.8-1.43l10.89 6 10.28-6.34a.82.82 0 11.86 1.39zM108.53 74.31a5.75 5.75 0 10-5.75 5.75 5.75 5.75 0 005.75-5.75zM454.18 336.65v24.87a4.74 4.74 0 01-4.74 4.74h-30.23a4.74 4.74 0 01-4.74-4.74v-30.23a4.74 4.74 0 014.74-4.74h27"/><path d="M448 337.6h-27a1.11 1.11 0 00-1.11 1.11v15.53a1.11 1.11 0 001.11 1.11h27a1.11 1.11 0 001.11-1.11v-15.53a1.11 1.11 0 00-1.11-1.11zm.36 3.36l-8.61 5.32 7.67 5.68a1 1 0 01-.59 1.8 1 1 0 01-.6-.2l-8.31-6.14-3.09 1.9-3.62-2-8.46 6.25a.94.94 0 01-.59.2 1 1 0 01-.6-1.8l7.73-5.72-8.77-4.87a1 1 0 01-.38-1.36 1 1 0 011.35-.39l13.3 7.37 12.53-7.74a1 1 0 011.38.33 1 1 0 01-.33 1.41zM459 330a7 7 0 10-7 7 7 7 0 007-7zM360.18 56.65v24.87a4.74 4.74 0 01-4.74 4.74h-30.23a4.74 4.74 0 01-4.74-4.74V51.29a4.74 4.74 0 014.74-4.74h27"/><path d="M365 50a7 7 0 10-7 7 7 7 0 007-7zM340.54 53.46c-7.09 0-12.84 4.91-12.84 11a10.5 10.5 0 005.23 8.81l-.58 5.1 5.24-3.25a15 15 0 003 .3c7.09 0 12.83-4.91 12.83-11s-5.79-10.96-12.88-10.96zM66.18 282.65v24.87a4.74 4.74 0 01-4.74 4.74H31.21a4.74 4.74 0 01-4.74-4.74v-30.23a4.74 4.74 0 014.74-4.74h27"/><path d="M71 276a7 7 0 10-7 7 7 7 0 007-7zM46.54 279.46c-7.09 0-12.84 4.91-12.84 11a10.5 10.5 0 005.23 8.81l-.58 5.1 5.24-3.25a15 15 0 002.95.3c7.09 0 12.83-4.91 12.83-11s-5.74-10.96-12.83-10.96zM285.196 68.051l9.9-9.9 9.9 9.9-9.9 9.9zM341.2 377.05l9.9-9.9 9.9 9.9-9.9 9.899zM54.203 404.051l9.899-9.9 9.9 9.9-9.9 9.9zM188.294 33.053l5.402-5.402 5.403 5.402-5.403 5.403zM56.203 255.05l5.402-5.402 5.403 5.402-5.403 5.402zM422.294 110.048l5.403-5.403 5.402 5.403-5.402 5.402z"/><circle cx="131.1" cy="97.05" r="4"/><circle cx="442.1" cy="314.05" r="4"/><circle cx="345.1" cy="112.05" r="4"/><circle cx="461" cy="239.05" r="2"/><circle cx="32.1" cy="142.05" r="4"/><path d="M448.69 157.74V177a3.68 3.68 0 01-3.68 3.68h-23.45a3.67 3.67 0 01-3.67-3.68v-23.42a3.67 3.67 0 013.67-3.68h21"/><circle cx="447" cy="152.61" r="5.44"/><path d="M424.88 170.73a10.16 10.16 0 0015.62-9 7.29 7.29 0 001.78-1.85 7.09 7.09 0 01-2 .57 3.61 3.61 0 001.57-2 7.18 7.18 0 01-2.27.87 3.57 3.57 0 00-6.08 3.25 10.1 10.1 0 01-7.36-3.73 3.58 3.58 0 001.11 4.77 3.54 3.54 0 01-1.62-.45 3.57 3.57 0 002.86 3.55 3.48 3.48 0 01-1.61.06 3.57 3.57 0 003.33 2.48 7.17 7.17 0 01-5.33 1.48z"/></g><g fill="#92e3a9"><path d="M74.93 189.09c3.08 1.35 10.6 1.18 10.61 1.18s-1.62-4.93-1.76-5.23c-1.65-3.45-6.87-9.15-11.12-8.58a5.08 5.08 0 00-4.07 6.36c.7 2.94 3.72 5.18 6.34 6.27zM151 190.75c.06 0 1.36-5 1.41-5.33.53-3.79-.68-11.42-4.54-13.29a5.07 5.07 0 00-6.9 3.06c-1 2.84.28 6.33 1.83 8.73 1.85 2.82 8.2 6.82 8.2 6.83z"/><path d="M173.48 163.49c-4.26-.46-9.32 5.38-10.88 8.87-.14.31-1.7 5.27-1.62 5.27h.09c-.8.92-1.66 1.91-2.57 3-1.67 2.05-3.53 4.38-5.39 7.05a91.37 91.37 0 00-5.59 8.9 66.31 66.31 0 00-4.77 10.75.65.65 0 000 .13c0-1.25 0-4.76-.07-5-.49-3.8-3.67-10.84-7.89-11.62a5.08 5.08 0 00-5.85 4.77c-.24 3 1.94 6 4.07 7.94 2.41 2.14 9.08 4.22 9.61 4.39a91.15 91.15 0 00-2.82 11.64c-.4 2.29-.75 4.62-1.06 6.95v-2.19c-.5-3.8-3.68-10.84-7.89-11.62a5.07 5.07 0 00-5.85 4.77c-.25 3 1.94 6 4.07 7.94s7.82 3.82 9.32 4.29c-.11.9-.23 1.79-.34 2.69-.51 4.3-1 8.6-1.62 12.79-.22 1.48-.48 2.93-.74 4.38 0-1 0-1.77-.06-1.9-.49-3.79-3.67-10.84-7.88-11.62a5.07 5.07 0 00-5.85 4.77c-.25 3 1.94 6 4.07 7.94s7.27 3.63 9.05 4.21c-.31 1.48-.62 3-1 4.38-.28 1-.48 1.91-.8 2.86s-.61 1.89-.91 2.82c-.65 1.76-1.3 3.59-2 5.31-.46 1.19-.92 2.32-1.38 3.46.23-1.47.63-4.36.63-4.61a19.66 19.66 0 00-2.64-9.58 6 6 0 00-.07-1.12 5.07 5.07 0 00-6.2-4.3c-4.14 1.1-6.77 8.37-7 12.19 0 .23.14 2.69.26 4.24-.21-.9-.4-1.78-.63-2.7-.43-1.83-.92-3.65-1.44-5.61-.28-.93-.56-1.88-.85-2.83s-.67-1.92-1-2.9c-.82-2.24-1.76-4.47-2.76-6.69 1.61-.39 7.28-1.83 9.56-3.58s4.67-4.59 4.65-7.61a5.08 5.08 0 00-5.48-5.2c-4.26.47-8 7.26-8.73 11 0 .24-.3 3-.41 4.5-.61-1.33-1.21-2.66-1.87-4-1.91-3.84-4-7.66-6-11.48-.62-1.17-1.22-2.35-1.83-3.52.57-.13 7.35-1.7 9.9-3.66 2.27-1.74 4.67-4.59 4.65-7.61a5.08 5.08 0 00-5.48-5.2c-4.26.47-8 7.25-8.73 11-.06.28-.41 4.24-.46 5.26-1.34-2.59-2.65-5.17-3.84-7.78A90 90 0 0189 209.21c.27-.06 7.35-1.67 10-3.68 2.27-1.74 4.67-4.58 4.65-7.61a5.07 5.07 0 00-5.48-5.19c-4.26.46-8 7.25-8.73 11 0 .24-.33 3.26-.42 4.7h-.25A65.77 65.77 0 0186.53 197c-.24-2.13-.35-4.18-.41-6.17 1.35-.17 7.52-1 10.07-2.53s5.15-4.05 5.46-7.06a5.08 5.08 0 00-4.88-5.76c-4.28 0-8.7 6.33-9.89 10-.06.2-.49 2.29-.78 3.81v-2.7c0-3.24.21-6.2.41-8.83.13-1.49.27-2.84.42-4.1 1.24-.85 6.2-4.35 7.72-6.85s2.71-6 1.6-8.78a5.07 5.07 0 00-7-2.87c-3.81 2-4.81 9.63-4.18 13.41 0 .33 1.49 5.33 1.56 5.29l.07-.06c-.17 1.21-.33 2.51-.49 3.93-.26 2.63-.53 5.6-.6 8.86a87.8 87.8 0 00.25 10.5 66.42 66.42 0 001.94 11.6.78.78 0 010 .14c-.68-1.06-2.66-4-2.84-4.17-2.5-2.89-9-7-13-5.34a5.08 5.08 0 00-2.25 7.21c1.46 2.65 5 4 7.78 4.37 3.19.47 9.9-1.48 10.44-1.63A90.24 90.24 0 0092 220.51c.92 2.14 1.92 4.27 2.95 6.38-.62-.89-1.17-1.69-1.26-1.79-2.5-2.9-9-7-13-5.34a5.07 5.07 0 00-2.25 7.2c1.46 2.65 5 4 7.78 4.38s8.63-1.13 10.14-1.56c.41.81.8 1.62 1.2 2.43 2 3.87 3.91 7.72 5.71 11.56.64 1.36 1.21 2.71 1.79 4.07-.54-.8-1-1.47-1.09-1.56-2.5-2.9-9-7-13-5.34a5.07 5.07 0 00-2.24 7.21c1.45 2.65 4.94 4 7.77 4.37s8.07-1 9.87-1.48c.56 1.4 1.12 2.81 1.59 4.2.3.95.66 1.85.91 2.82s.53 1.91.79 2.85c.44 1.84.91 3.72 1.29 5.52.28 1.25.52 2.44.76 3.64-.61-1.35-1.88-4-2-4.18-2-3.24-7.88-8.31-12-7.25a5.07 5.07 0 00-3.31 6.78c1 2.85 4.29 4.67 7 5.51 3 .92 9.67.08 10.5 0 .4 2 .77 3.93 1.09 5.76 1.11 6.31 1.8 11.6 2.24 15.34h2.9v-.25c-.52-3.77-1.34-9.15-2.61-15.55-.4-2-.86-4.18-1.36-6.39a56.77 56.77 0 005.86-2.75c2.19 2.37 7.81 5.15 8.54 5.51-.76 1.88-1.53 3.7-2.27 5.41a249.94 249.94 0 01-6.6 14h3.19c1.57-3.33 3.59-7.76 5.75-13 .78-1.9 1.58-4 2.38-6.07.81.17 7.41 1.51 10.48.81 2.79-.63 6.17-2.21 7.42-5a5.08 5.08 0 00-2.8-7c-4.07-1.37-10.27 3.25-12.54 6.33-.13.18-1.37 2.31-2.13 3.67.33-.86.65-1.7 1-2.6.65-1.77 1.25-3.55 1.89-5.46.28-.94.57-1.89.85-2.84s.51-2 .77-3c.55-2.32 1-4.7 1.39-7.1 1.55.56 7.08 2.48 10 2.28s6.42-1.24 8.08-3.78a5.07 5.07 0 00-1.71-7.35c-3.81-2-10.64 1.65-13.35 4.35-.17.17-1.9 2.33-2.82 3.53.22-1.45.46-2.89.64-4.36.53-4.25.93-8.57 1.35-12.88.13-1.32.27-2.63.41-3.94.55.2 7.07 2.63 10.28 2.41 2.85-.2 6.43-1.25 8.08-3.79a5.07 5.07 0 00-1.71-7.35c-3.81-2-10.63 1.66-13.35 4.36-.2.2-2.68 3.31-3.28 4.13.31-2.9.64-5.78 1.08-8.61a91.48 91.48 0 012.47-11.32c.26.1 7.06 2.66 10.34 2.43 2.85-.2 6.43-1.24 8.08-3.78a5.07 5.07 0 00-1.7-7.35c-3.81-2-10.64 1.65-13.35 4.35-.18.18-2.08 2.54-2.95 3.69l-.22-.11a65.29 65.29 0 014.5-10.75c1-1.91 2-3.68 3.06-5.37 1.22.6 6.81 3.32 9.79 3.44s6.53-.54 8.45-2.87a5.09 5.09 0 00-.89-7.5c-3.57-2.37-10.76.48-13.75 2.86-.16.13-1.67 1.64-2.75 2.74.48-.75 1-1.55 1.45-2.26 1.79-2.7 3.6-5.07 5.22-7.15.93-1.17 1.79-2.21 2.61-3.18 1.5 0 7.57-.21 10.22-1.46s5.55-3.48 6.17-6.44a5.07 5.07 0 00-4.31-6.23zM241 319.64c3.46 1.51 11.95 1.32 11.95 1.32s-1.82-5.55-2-5.89c-1.86-3.89-7.75-10.32-12.54-9.67a5.71 5.71 0 00-4.59 7.16c.78 3.32 4.18 5.79 7.18 7.08zM326.76 321.5c.08.05 1.55-5.63 1.6-6 .59-4.28-.77-12.89-5.12-15a5.73 5.73 0 00-7.79 3.45c-1.16 3.2.32 7.14 2.07 9.84 2.06 3.21 9.24 7.71 9.24 7.71z"/><path d="M352.08 290.76c-4.8-.52-10.51 6.07-12.27 10-.15.34-1.91 5.94-1.82 5.94h.1c-.91 1-1.87 2.15-2.9 3.39-1.88 2.31-4 4.94-6.08 7.95a102.49 102.49 0 00-6.3 10 74 74 0 00-5.38 12.12c0 .05 0 .11-.05.15 0-1.41 0-5.37-.07-5.67-.56-4.28-4.15-12.23-8.9-13.11a5.73 5.73 0 00-6.6 5.38c-.27 3.4 2.19 6.81 4.6 9 2.71 2.42 10.23 4.77 10.83 4.95a103.14 103.14 0 00-3.18 13.14c-.46 2.59-.84 5.21-1.2 7.84 0-1.23 0-2.32-.06-2.47-.55-4.28-4.14-12.23-8.89-13.11a5.72 5.72 0 00-6.6 5.38c-.28 3.4 2.19 6.81 4.59 8.95s8.82 4.31 10.51 4.85c-.12 1-.26 2-.38 3-.58 4.85-1.14 9.7-1.83 14.43-.24 1.67-.54 3.3-.84 4.94 0-1.09 0-2-.06-2.15-.55-4.28-4.14-12.22-8.89-13.1a5.73 5.73 0 00-6.6 5.38c-.28 3.4 2.19 6.8 4.59 9s8.2 4.1 10.21 4.75c-.35 1.67-.7 3.34-1.12 4.93-.31 1.09-.53 2.15-.9 3.23l-1 3.17c-.72 2-1.46 4.06-2.22 6-.51 1.35-1 2.62-1.55 3.9.26-1.65.71-4.91.71-5.18a22.15 22.15 0 00-3-10.81 6.66 6.66 0 00-.07-1.26 5.73 5.73 0 00-7-4.86c-4.67 1.25-7.63 9.45-7.85 13.76 0 .25.15 3 .29 4.77-.24-1-.46-2-.71-3-.49-2.07-1-4.12-1.62-6.32l-1-3.2c-.3-1.07-.75-2.17-1.13-3.26-.92-2.53-2-5-3.1-7.55 1.8-.44 8.2-2.07 10.77-4s5.27-5.17 5.25-8.58a5.73 5.73 0 00-6.18-5.86c-4.81.52-9 8.18-9.85 12.4-.05.27-.34 3.37-.46 5.08-.69-1.51-1.37-3-2.11-4.51-2.15-4.32-4.46-8.63-6.74-12.94-.7-1.32-1.38-2.65-2.07-4 .65-.15 8.29-1.92 11.17-4.13 2.56-2 5.27-5.17 5.24-8.58a5.72 5.72 0 00-6.17-5.86c-4.81.52-9 8.18-9.85 12.4-.07.32-.47 4.79-.52 5.93-1.51-2.91-3-5.83-4.33-8.77a100.46 100.46 0 01-4.72-12.18c.3-.07 8.29-1.88 11.24-4.14 2.55-2 5.27-5.18 5.24-8.59a5.71 5.71 0 00-6.18-5.85c-4.8.52-9 8.17-9.84 12.4-.06.28-.37 3.68-.48 5.3h-.27a72.64 72.64 0 01-2.48-12.97c-.27-2.4-.4-4.71-.47-7 1.53-.18 8.48-1.11 11.35-2.85s5.81-4.56 6.16-7.95a5.72 5.72 0 00-5.5-6.5c-4.83 0-9.82 7.14-11.15 11.24-.07.23-.55 2.58-.88 4.29 0-1-.05-2.06-.05-3 0-3.66.24-7 .47-10 .14-1.68.3-3.2.47-4.62 1.4-1 7-4.9 8.71-7.72s3.05-6.73 1.8-9.9a5.73 5.73 0 00-7.88-3.24c-4.29 2.22-5.42 10.86-4.71 15.12.06.37 1.68 6 1.76 6l.08-.05c-.19 1.36-.37 2.82-.54 4.42-.3 3-.6 6.32-.69 10a102.42 102.42 0 00.28 11.85 74.79 74.79 0 002.2 13.08.88.88 0 00.05.15c-.76-1.2-3-4.47-3.2-4.7-2.83-3.26-10.2-7.91-14.65-6a5.73 5.73 0 00-2.53 8.13c1.64 3 5.57 4.46 8.76 4.93 3.6.52 11.17-1.67 11.77-1.85a101.74 101.74 0 004.6 12.71c1 2.41 2.16 4.8 3.32 7.19-.69-1-1.32-1.91-1.42-2-2.82-3.26-10.2-7.91-14.64-6a5.72 5.72 0 00-2.54 8.13c1.64 3 5.58 4.47 8.77 4.93s9.73-1.27 11.44-1.75l1.35 2.73c2.19 4.37 4.4 8.72 6.43 13.05.72 1.52 1.37 3.05 2 4.58-.61-.9-1.14-1.65-1.23-1.76-2.83-3.26-10.2-7.91-14.65-6a5.73 5.73 0 00-2.53 8.13c1.64 3 5.57 4.46 8.76 4.93s9.1-1.1 11.14-1.67c.62 1.58 1.25 3.17 1.78 4.73.35 1.08.75 2.09 1 3.19l.9 3.22c.49 2.06 1 4.19 1.45 6.22.31 1.4.58 2.75.86 4.1-.7-1.52-2.12-4.48-2.27-4.72-2.3-3.65-8.88-9.36-13.57-8.17a5.72 5.72 0 00-3.73 7.65c1.17 3.21 4.83 5.26 7.92 6.21 3.39 1 10.9.09 11.84 0 .45 2.25.87 4.43 1.23 6.5 1.25 7.11 2 13.09 2.52 17.3h3.27v-.28c-.59-4.26-1.51-10.32-2.95-17.54-.44-2.28-1-4.71-1.53-7.2a63.46 63.46 0 006.61-3.11c2.47 2.68 8.81 5.81 9.63 6.21-.86 2.12-1.72 4.18-2.56 6.11-2.88 6.62-5.53 12-7.44 15.81H295c1.78-3.75 4.05-8.75 6.48-14.7.89-2.15 1.79-4.47 2.7-6.85.91.19 8.35 1.7 11.81.92 3.15-.71 7-2.49 8.36-5.6a5.72 5.72 0 00-3.15-7.91c-4.59-1.54-11.58 3.67-14.14 7.14-.15.21-1.54 2.61-2.4 4.14.37-1 .73-1.92 1.09-2.93.74-2 1.41-4 2.14-6.16.31-1.06.63-2.12.95-3.2s.57-2.23.86-3.35c.63-2.61 1.13-5.3 1.58-8 1.75.64 8 2.81 11.21 2.58s7.25-1.41 9.11-4.27a5.71 5.71 0 00-1.92-8.29c-4.3-2.21-12 1.87-15 4.92-.2.18-2.15 2.62-3.19 4 .26-1.63.52-3.26.73-4.92.59-4.79 1-9.66 1.52-14.52.14-1.48.3-3 .46-4.45.62.24 8 3 11.59 2.72 3.22-.22 7.25-1.41 9.11-4.26a5.72 5.72 0 00-1.92-8.3c-4.29-2.21-12 1.87-15 4.92-.23.23-3 3.73-3.7 4.65.34-3.26.72-6.51 1.22-9.7a100.46 100.46 0 012.78-12.76c.29.11 8 3 11.66 2.74 3.21-.23 7.25-1.41 9.11-4.27a5.72 5.72 0 00-1.92-8.29c-4.3-2.22-12 1.87-15.06 4.91-.2.2-2.33 2.87-3.32 4.16l-.24-.13a73.66 73.66 0 015.06-12.12c1.1-2.15 2.27-4.14 3.46-6.06 1.37.69 7.68 3.75 11 3.89s7.36-.61 9.52-3.24a5.73 5.73 0 00-1-8.46c-4-2.67-12.13.54-15.5 3.23-.19.15-1.89 1.84-3.11 3.09.55-.85 1.1-1.75 1.64-2.56 2-3 4.06-5.7 5.88-8.05 1.05-1.32 2-2.5 2.95-3.59 1.7 0 8.53-.24 11.53-1.64s6.25-3.93 6.95-7.27a5.71 5.71 0 00-4.81-7.22zM77 341.41c3.15 1 10.53.15 10.53.14s-2.06-4.68-2.22-5c-2-3.24-7.63-8.35-11.75-7.38a5 5 0 00-3.4 6.64c.94 2.86 4.11 4.73 6.84 5.6zM151.92 335.78c.07 0 .87-5 .89-5.37.15-3.78-1.76-11.17-5.74-12.63a5 5 0 00-6.49 3.66c-.74 2.9.88 6.2 2.63 8.41 2.06 2.6 8.71 5.93 8.71 5.93z"/><path d="M171.4 306.84c-4.23 0-8.66 6.18-9.85 9.77-.11.31-1.17 5.34-1.09 5.33h.09c-.71 1-1.45 2-2.24 3.2-1.45 2.18-3.06 4.64-4.63 7.45a88.13 88.13 0 00-4.65 9.28 65.93 65.93 0 00-3.66 11v.14c-.1-1.24-.49-4.68-.55-4.94-.84-3.69-4.64-10.31-8.86-10.68a5 5 0 00-5.3 5.25c.05 3 2.49 5.75 4.76 7.42 2.57 1.88 9.33 3.29 9.87 3.4a90 90 0 00-1.66 11.71c-.19 2.3-.3 4.61-.38 6.94-.12-1.07-.24-2-.27-2.15-.84-3.69-4.64-10.31-8.86-10.68a5 5 0 00-5.3 5.25c.05 3 2.49 5.75 4.76 7.42s8 3 9.58 3.34c0 .89-.06 1.78-.08 2.67-.1 4.28-.17 8.55-.38 12.73-.07 1.48-.19 2.93-.31 4.38-.11-.95-.2-1.75-.23-1.87-.85-3.68-4.65-10.3-8.86-10.67a5 5 0 00-5.3 5.25c0 3 2.48 5.75 4.76 7.42s7.49 2.87 9.3 3.27c-.17 1.49-.33 3-.56 4.4-.18 1-.28 1.92-.51 2.89s-.42 1.91-.63 2.85c-.46 1.8-.93 3.67-1.43 5.41-.34 1.22-.68 2.37-1 3.53.09-1.46.2-4.34.18-4.58a19.45 19.45 0 00-3.51-9.17 5.07 5.07 0 00-.18-1.09 5 5 0 00-6.5-3.64c-4 1.48-5.86 8.87-5.69 12.65 0 .22.39 2.63.66 4.14-.29-.87-.57-1.71-.88-2.6-.6-1.76-1.25-3.49-1.95-5.37q-.54-1.33-1.11-2.7c-.35-.91-.84-1.83-1.26-2.75-1-2.13-2.15-4.23-3.34-6.32 1.54-.53 7-2.5 9-4.43s4.15-5 3.84-7.93a5 5 0 00-5.88-4.58c-4.14.86-7.13 7.88-7.53 11.64v4.47c-.72-1.26-1.44-2.51-2.22-3.75-2.23-3.59-4.61-7.16-7-10.72-.72-1.09-1.42-2.19-2.14-3.28.55-.19 7.07-2.38 9.39-4.55 2.07-1.92 4.16-4.95 3.85-7.93a5 5 0 00-5.88-4.58c-4.15.86-7.13 7.89-7.54 11.65v5.21c-1.56-2.42-3.1-4.83-4.52-7.28a88.83 88.83 0 01-5.14-10.22c.25-.09 7.07-2.34 9.44-4.56 2.07-1.93 4.16-5 3.85-7.93a5 5 0 00-5.88-4.59c-4.14.87-7.13 7.89-7.53 11.65v4.66l-.24.05a63.75 63.75 0 01-3.23-11c-.44-2.07-.75-4.08-1-6 1.32-.29 7.3-1.68 9.66-3.45s4.67-4.47 4.69-7.45a5 5 0 00-5.21-5.22c-4.21.41-8 7.06-8.77 10.75 0 .2-.27 2.29-.41 3.82-.1-.89-.22-1.8-.3-2.64-.3-3.19-.38-6.13-.43-8.73v-4.07c1.14-1 5.68-4.87 6.94-7.47s2.09-6.12.73-8.79a5 5 0 00-7.14-2.15c-3.55 2.3-3.81 9.93-2.83 13.58.09.32 2 5.1 2 5.05l.07-.06c0 1.21-.09 2.5-.11 3.91 0 2.61 0 5.55.25 8.76a88.76 88.76 0 001.25 10.31 64.52 64.52 0 003 11.21c0 .05 0 .09.05.13-.76-1-3-3.64-3.18-3.82-2.74-2.61-9.56-6-13.28-4a5 5 0 00-1.52 7.3c1.68 2.46 5.24 3.42 8.06 3.56 3.18.15 9.59-2.4 10.1-2.61a88.72 88.72 0 005.08 10.69c1.11 2 2.29 4 3.5 6-.68-.82-1.3-1.55-1.4-1.65-2.74-2.6-9.56-6-13.28-4a5 5 0 00-1.52 7.3c1.68 2.47 5.24 3.42 8.06 3.56s8.37-1.93 9.82-2.5c.48.76.94 1.52 1.42 2.27 2.28 3.63 4.57 7.23 6.71 10.83.75 1.27 1.45 2.55 2.15 3.82-.61-.73-1.13-1.34-1.22-1.42-2.74-2.61-9.56-6-13.28-4a5 5 0 00-1.52 7.3c1.68 2.46 5.24 3.42 8.06 3.55s7.83-1.73 9.56-2.39c.68 1.33 1.36 2.66 2 4 .39.91.82 1.76 1.16 2.69l1.09 2.61c.6 1.76 1.24 3.57 1.79 5.3.39 1.2.74 2.35 1.1 3.51-.74-1.27-2.23-3.73-2.38-3.92-2.31-3-8.54-7.41-12.52-6a5 5 0 00-2.61 7c1.29 2.69 4.66 4.17 7.43 4.74 3 .61 9.52-.85 10.32-1 .58 1.92 1.13 3.8 1.62 5.57 1.7 6.09 2.88 11.23 3.66 14.87l2.86-.28-.06-.24c-.87-3.66-2.19-8.87-4-15.05-.58-1.95-1.24-4-1.94-6.14a57.35 57.35 0 005.49-3.27c2.39 2.12 8.18 4.32 8.93 4.6-.57 1.92-1.15 3.79-1.72 5.54-2 6-3.8 11-5.15 14.41l3.13-.3c1.23-3.42 2.79-8 4.41-13.36.59-1.95 1.18-4 1.77-6.21.81.09 7.42.78 10.38-.19 2.68-.89 5.85-2.76 6.81-5.59a5 5 0 00-3.42-6.63c-4.12-.95-9.78 4.18-11.72 7.42-.11.19-1.12 2.41-1.74 3.82.24-.89.48-1.74.71-2.65.47-1.8.88-3.61 1.34-5.56.18-.94.37-1.9.56-2.87s.31-2 .47-3c.32-2.33.53-4.71.69-7.11 1.58.4 7.2 1.77 10 1.3s6.2-1.84 7.58-4.49a5 5 0 00-2.38-7.07c-3.93-1.57-10.3 2.64-12.71 5.56-.15.18-1.64 2.46-2.44 3.73.09-1.44.18-2.89.22-4.35.11-4.23.09-8.51.1-12.78v-3.92c.56.15 7.21 1.91 10.34 1.39 2.78-.47 6.2-1.84 7.58-4.49a5 5 0 00-2.38-7.07c-3.93-1.57-10.3 2.64-12.71 5.56-.18.22-2.32 3.51-2.83 4.37 0-2.88.08-5.74.25-8.56a88.37 88.37 0 011.34-11.37c.27.07 7.19 2 10.4 1.41 2.78-.47 6.2-1.84 7.58-4.49a5 5 0 00-2.37-7.07c-3.94-1.57-10.3 2.64-12.71 5.56-.16.19-1.8 2.69-2.55 3.9l-.22-.09a64.15 64.15 0 013.39-11c.78-2 1.63-3.81 2.5-5.58 1.25.48 7 2.62 10 2.45s6.37-1.14 8-3.63a5 5 0 00-1.58-7.28c-3.74-2-10.53 1.49-13.25 4.12-.15.15-1.49 1.77-2.44 3 .4-.79.8-1.62 1.21-2.37 1.5-2.82 3-5.32 4.45-7.52.8-1.24 1.55-2.35 2.26-3.38 1.48-.17 7.42-.93 9.91-2.4s5.12-3.95 5.45-6.92a5 5 0 00-4.8-5.79z"/></g><rect x="116.14" y="79.05" width="189.09" height="369" rx="14.52" fill="#263238"/><path d="M216.43 436.05a6.43 6.43 0 10-6.43 6.42 6.43 6.43 0 006.43-6.42z" fill="none" stroke="#fff" stroke-linecap="round" stroke-linejoin="round"/><path d="M235.16 79.05h-104.5a14.52 14.52 0 00-14.52 14.52v289z" fill="#fff" opacity=".3"/><path fill="#fff" stroke="#263238" stroke-linecap="round" stroke-linejoin="round" d="M124.55 104.11h172.27v322.04H124.55z"/><path fill="none" stroke="#263238" stroke-linecap="round" stroke-linejoin="round" stroke-width=".821" d="M276.67 107.45h14.28v7.83h-14.28z"/><path fill="#263238" stroke="#263238" stroke-linecap="round" stroke-linejoin="round" stroke-width=".725" d="M276.67 107.45h11.14v7.83h-11.14zM290.93 109.64h2.01v3.45h-2.01z"/><path fill="#263238" stroke="#263238" stroke-linecap="round" stroke-linejoin="round" stroke-width=".883" d="M128.43 109.88h2.62v4.49h-2.62zM132.54 108.3h2.62v6.07h-2.62zM136.66 106.44h2.62v7.93h-2.62z"/><path fill="#92e3a9" d="M127.33 119.64h165.42v12.44H127.33z"/><path d="M304.61 464.49c0 4-40.89 7.23-91.33 7.23S122 468.48 122 464.49s40.89-7.22 91.33-7.22 91.28 3.23 91.28 7.22z" fill="#263238"/><rect x="140.73" y="298.12" width="39.71" height="39.71" rx="4.74" fill="#263238"/><path d="M150.21 325.07a13.08 13.08 0 0020.13-11.62 9.46 9.46 0 002.3-2.38 9.46 9.46 0 01-2.65.73 4.65 4.65 0 002-2.55 9.28 9.28 0 01-2.93 1.12 4.55 4.55 0 00-3.35-1.46 4.61 4.61 0 00-4.49 5.65 13.06 13.06 0 01-9.48-4.8 4.61 4.61 0 001.43 6.14 4.48 4.48 0 01-2.09-.58 4.6 4.6 0 003.69 4.57 4.54 4.54 0 01-2.08.08 4.62 4.62 0 004.3 3.2 9.26 9.26 0 01-6.78 1.9z" fill="#fff"/><rect x="191.31" y="298.12" width="39.71" height="39.71" rx="4.74" fill="#263238"/><path d="M212.32 337.82H219V321h4.69l.5-5.64H219v-3.21c0-1.32.27-1.85 1.55-1.85h3.64v-5.85h-4.65c-5 0-7.26 2.2-7.26 6.42v4.49h-3.5v5.71h3.5z" fill="#fff"/><rect x="241.9" y="298.12" width="39.71" height="39.71" rx="4.74" fill="#263238"/><path d="M273.29 317.39a11.34 11.34 0 00-22.65-.21v.49a11.15 11.15 0 001.62 5.81l-2 6 6.28-2a11.35 11.35 0 0016.81-9.85 2.62 2.62 0 00-.06-.24zM262 327.13a9.53 9.53 0 01-5.24-1.57l-3.66 1.17 1.19-3.51a9.39 9.39 0 01-1.82-5.55v-.92a9.53 9.53 0 0119 .18v.74a9.5 9.5 0 01-9.47 9.46z" fill="#fff" fill-rule="evenodd"/><path d="M267.16 319.94c-.28-.13-1.65-.8-1.9-.89s-.44-.14-.63.13a13.55 13.55 0 01-.88 1.08c-.16.19-.32.21-.6.07a7.37 7.37 0 01-2.24-1.37 8.26 8.26 0 01-1.54-1.9.41.41 0 01.12-.57c.13-.12.28-.32.42-.48l.1-.13a3.34 3.34 0 00.17-.33.48.48 0 000-.48c-.07-.14-.62-1.5-.86-2.05s-.46-.46-.62-.46h-.53a1.06 1.06 0 00-.75.34 3.12 3.12 0 00-1 2.3 3.3 3.3 0 00.15.94 6.06 6.06 0 001 1.91 11.43 11.43 0 004.74 4.17c2.83 1.1 2.83.73 3.34.68a2.73 2.73 0 001.87-1.31 2.23 2.23 0 00.17-1.31c-.07-.13-.26-.2-.53-.34z" fill="#fff" fill-rule="evenodd"/><rect x="191.31" y="370.85" width="39.71" height="39.71" rx="4.74" fill="#263238"/><path d="M211.07 377.61c-7.09 0-12.84 4.91-12.84 11a10.55 10.55 0 005.23 8.82l-.58 5.09 5.25-3.25a14.88 14.88 0 002.94.31c7.09 0 12.84-4.91 12.84-11s-5.75-10.97-12.84-10.97z" fill="#fff" fill-rule="evenodd"/><rect x="241.9" y="370.85" width="39.71" height="39.71" rx="4.74" fill="#263238"/><path d="M275.44 381.9h-27a1.11 1.11 0 00-1.11 1.11v15.53a1.11 1.11 0 001.11 1.11h27a1.11 1.11 0 001.11-1.11V383a1.11 1.11 0 00-1.11-1.1zm.36 3.36l-8.61 5.32 7.67 5.68a1 1 0 01-.59 1.8 1 1 0 01-.6-.2l-8.32-6.14-3.08 1.9-3.62-2-8.46 6.25a1 1 0 01-.59.2 1 1 0 01-.6-1.8l7.73-5.72-8.73-4.88a1 1 0 111-1.75l13.29 7.38 12.53-7.74a1 1 0 011.38.33 1 1 0 01-.4 1.37z" fill="#fff" fill-rule="evenodd"/><path d="M269.52 264H151.13a15.79 15.79 0 01-15.79-15.79 15.78 15.78 0 0115.79-15.78h118.39a15.77 15.77 0 0115.78 15.78A15.78 15.78 0 01269.52 264z" fill="#d4d4d4" fill-rule="evenodd"/><path fill="gray" d="M135.34 168.54h72.47v45.2h-72.47zM212.12 168.54h72.47v45.2h-72.47z"/><path fill="#999" d="M212.12 168.54h72.47v25h-72.47z"/><path d="M254.45 203.7a5.74 5.74 0 10-5.74 5.74 5.74 5.74 0 005.74-5.74z" fill="#4a4a4a" fill-rule="evenodd"/><path fill="#fff" fill-rule="evenodd" d="M252.12 203.65l-5.19-3v6l5.19-3z"/><circle cx="275.98" cy="203.7" r="5.74" fill="#4a4a4a"/><path fill="#fff" fill-rule="evenodd" d="M277.77 200.91v2.37l-4.55-2.63v6l4.55-2.63v2.89h1.15v-6h-1.15z"/><circle cx="221.45" cy="203.7" r="5.74" fill="#4a4a4a"/><path fill="#fff" fill-rule="evenodd" d="M219.84 200.91v2.37l4.55-2.63v6l-4.55-2.63v2.89h-1.15v-6h1.15z"/><circle cx="174.32" cy="298.53" r="9.8" transform="rotate(-14.1 174.282 298.466)" fill="#92e3a9" stroke="#263238" stroke-miterlimit="10"/><path d="M169.07 294a1.91 1.91 0 002.13-1.55h1.3v12.35h-1.93v-9.42h-1.5zM177.67 294.08c-.62 0-1 .33-1 1.22v1.32h-1.83v-1.2c0-2 1-3.1 2.88-3.1s2.88 1.13 2.88 3.1c0 3.88-3.85 5.32-3.85 7.35a1.14 1.14 0 000 .26h3.66v1.77h-5.59v-1.52c0-3.63 3.83-4.23 3.83-7.79.02-1.11-.37-1.41-.98-1.41z" fill="#263238"/><circle cx="228.13" cy="298.53" r="9.8" transform="rotate(-9.25 228.003 298.396)" fill="#92e3a9" stroke="#263238" stroke-miterlimit="10"/><path d="M222.88 294a1.91 1.91 0 002.13-1.55h1.3v12.35h-1.93v-9.42h-1.5zM230.39 300.81V302c0 .88.39 1.2 1 1.2s1-.32 1-1.2v-2.72c0-.88-.38-1.21-1-1.21s-1 .33-1 1.21v.37h-1.83l.35-7.15H234v1.76h-3.36l-.15 2.94a1.83 1.83 0 011.68-.89c1.43 0 2.15 1 2.15 2.82v2.74c0 2-1 3.11-2.89 3.11s-2.88-1.13-2.88-3.11v-1z" fill="#263238"/><circle cx="275.4" cy="298.53" r="9.8" transform="rotate(-45 275.406 298.533)" fill="#92e3a9" stroke="#263238" stroke-miterlimit="10"/><path d="M271.79 294.08c-.61 0-1 .33-1 1.22v1.32H269v-1.2c0-2 1-3.1 2.89-3.1s2.88 1.13 2.88 3.1c0 3.88-3.85 5.32-3.85 7.35a1.14 1.14 0 000 .26h3.65v1.77H269v-1.52c0-3.63 3.83-4.23 3.83-7.79-.04-1.11-.42-1.41-1.04-1.41zM279.65 295.49c0-1.11-.39-1.41-1-1.41s-1 .33-1 1.22v.79h-1.83v-.67c0-2 1-3.1 2.88-3.1s2.88 1.13 2.88 3.1v.32a2.41 2.41 0 01-1.35 2.54 2.5 2.5 0 011.35 2.59v1c0 2-1 3.11-2.88 3.11s-2.88-1.13-2.88-3.11v-1h1.83V302c0 .88.38 1.21 1 1.21s1-.3 1-1.39v-1c0-1.14-.39-1.57-1.27-1.57h-.65v-1.76h.76c.72 0 1.16-.32 1.16-1.3z" fill="#263238"/><circle cx="228.13" cy="372.7" r="9.8" transform="rotate(-9.25 228.038 372.554)" fill="#92e3a9" stroke="#263238" stroke-miterlimit="10"/><path d="M222.88 368.18a1.91 1.91 0 002.13-1.55h1.3V379h-1.93v-9.41h-1.5zM228.49 369.59c0-2 1-3.1 2.94-3.1s2.93 1.13 2.93 3.1V376c0 2-1 3.1-2.93 3.1s-2.94-1.13-2.94-3.1zm1.93 6.54c0 .88.39 1.22 1 1.22s1-.34 1-1.22v-6.66c0-.88-.39-1.22-1-1.22s-1 .34-1 1.22z" fill="#263238"/><circle cx="276.54" cy="372.7" r="9.8" transform="rotate(-12.58 276.423 372.567)" fill="#92e3a9" stroke="#263238" stroke-miterlimit="10"/><path d="M275.32 375v1.15c0 .88.39 1.2 1 1.2s1-.32 1-1.2v-2.71c0-.89-.39-1.22-1-1.22s-1 .33-1 1.22v.37h-1.82l.35-7.16h5.09v1.76h-3.35l-.16 2.95a1.82 1.82 0 011.69-.9c1.42 0 2.14 1 2.14 2.82V376c0 2-1 3.1-2.88 3.1s-2.88-1.1-2.88-3.1v-1z" fill="#263238"/><rect x="140.73" y="370.85" width="39.71" height="39.71" rx="4.74" fill="#999"/><ellipse cx="160.58" cy="384.54" rx="6.26" ry="8.15" fill="#fff"/><path d="M160 405.72a16.72 16.72 0 0012.25-5.32 15.43 15.43 0 00-23.74.75 16.69 16.69 0 0011.49 4.57z" fill="#fff" fill-rule="evenodd"/><path d="M146.81 144.31c0 6.8-9.24 9.06-9.38 17.46v.14h9.24v.73h-10v-.52c0-9.13 9.39-11.22 9.39-17.77 0-3.07-1-5.57-4.35-5.57s-4.31 2.64-4.31 5.57v1.32h-.73v-1.29c0-3.37 1.32-6.3 5.08-6.3s5.06 2.79 5.06 6.23zM159.67 144.25v.59a5.1 5.1 0 01-3.47 5c2.33.59 3.47 2.51 3.47 4.88v1.88c0 3.41-1.35 6.16-5.07 6.16s-5.11-2.75-5.11-6.16v-1.1h.76v1.15c0 3 1.08 5.47 4.31 5.47s4.35-2.48 4.35-5.51v-1.84c0-2.65-1.43-4.36-4-4.5h-1.81v-.69h1.81a4.36 4.36 0 004-4.64v-.69c0-3-1.11-5.47-4.35-5.47s-4.31 2.43-4.31 5.43v.73h-.76v-.69c0-3.42 1.39-6.17 5.11-6.17s5.07 2.75 5.07 6.17zM163.18 146.54v2.83h-.76v-2.83zm0 13.28v2.82h-.76v-2.82zM170.31 139.72a4.87 4.87 0 01-4.07 2.71v-.69a4.76 4.76 0 004.1-3.52h.73v24.42h-.76zM175.35 149a4.44 4.44 0 014.13-2.16c3.58 0 4.9 2.79 4.9 6.09v3.7c0 3.38-1.39 6.16-5.07 6.16s-5.11-2.78-5.11-6.16v-1.03h.8v1.05c0 3 1.12 5.43 4.31 5.43s4.35-2.47 4.35-5.43V153c0-2.93-1.11-5.4-4.35-5.4a4.07 4.07 0 00-4 2.93v.27h-.73l.63-12.57H184v.77h-8.1z" fill="#999"/><g><ellipse cx="402.65" cy="461.91" rx="68.11" ry="9.8" fill="#263238"/><path d="M421 441.32s-5.66 8.34-7.45 9.83-9.23 4.76-9.53 6-.89 2.08.3 3 15.49 1.19 18.17 1.19 4.47-2.68 5.66-3.58 4.77-3.57 6.85-5.06 8.34-5.07 8.64-7.15-8-10.13-8-10.13z" fill="#92e3a9" stroke="#263238" stroke-linecap="round" stroke-linejoin="round"/><path d="M404.29 460.09c1.19.89 15.49 1.19 18.17 1.19s4.47-2.68 5.66-3.58 4.77-3.57 6.85-5.06 8.34-5.07 8.64-7.15c.11-.75-.89-2.25-2.21-3.88a52.72 52.72 0 00-6.13 6.86c-2.68 3.87-10.13 8.64-14.3 8.93s-17-.29-17-.29c-.28 1.19-.87 2.08.32 2.98z" fill="#fff" stroke="#263238" stroke-linecap="round" stroke-linejoin="round"/><path d="M370.63 323.35s4.46 14.59 8.34 26.21 11.62 33.67 15.19 39.62 14.3 24.43 17.28 31.88 8.64 18.77 8.64 18.77l14.92-7.45s-5.06-15.19-6.85-22.94-3.87-16.38-7.15-21.15a89.71 89.71 0 00-7.15-8.94l-7.74-35.45-7.75-31s-20.58-.28-27.73 10.45z" fill="#263238" stroke="#263238" stroke-linecap="round" stroke-linejoin="round"/><path d="M416.21 437.44s2.08 3.88 2.68 5.07 6.55 1.49 9.23.3 10.13-5.07 10.13-6.86-2.38-6.25-3.28-7.74-4.17-.3-6.25.6-9.83 4.76-10.73 5.06a2.69 2.69 0 00-1.78 3.57z" fill="#fff" stroke="#263238" stroke-linecap="round" stroke-linejoin="round"/><path d="M363.48 446.68a35.35 35.35 0 01-6 5.06c-3.88 2.69-13.11 5.37-16.39 6s-3.27 2.39-3.27 4.17 11.32 4.47 17 5.37 20.85.59 22.34-.6 1.49-13.11 1.49-14.3-15.17-5.7-15.17-5.7z" fill="#92e3a9" stroke="#263238" stroke-linecap="round" stroke-linejoin="round"/><path d="M377.18 466.64c.49-.39.81-1.93 1-3.86a104.13 104.13 0 01-16.49 1.22 57.87 57.87 0 01-23.3-4.82 4.73 4.73 0 00-.53 2.73c0 1.79 11.32 4.47 17 5.37s20.83.55 22.32-.64z" fill="#fff" stroke="#263238" stroke-linecap="round" stroke-linejoin="round"/><path d="M377.48 323.64s-2.39 22.05-3 32.77-2.39 20.26-2.39 25-4.17 34.56-4.17 39.62-3.57 20.26-3.57 20.26 0 .59 3.28 1.49 8.64 2.08 8.64 2.08H379s3.27-9.83 7.15-18.77 7.15-15.19 8-24.13 0-19.66 1.19-21.74 14.6-36.05 16.39-39 5.36-10.43 5.36-10.43 4.17-4.76 3.87-13.4-4.76-8.05-13.11-8.05-18.76 3.58-22.34 6-8.03 8.3-8.03 8.3z" fill="#263238" stroke="#263238" stroke-linecap="round" stroke-linejoin="round"/><path d="M379.86 431.72c-.79 2.5-1.34 4.12-1.34 4.12M387.4 377.46v3.35c0 1.12-1.11 1.49-1.48 4.09s2.6 6.69 1.48 7.44-2.23 1.48-2.23 3.34a77.73 77.73 0 010 14.13c-.43 5-2.65 13.07-4.42 18.9M403.16 327.16c-4.68 12-13.51 34.8-14.6 39.15a41.32 41.32 0 00-1 7.4M406 319.83l-1.51 3.86" fill="none" stroke="#636363" stroke-linecap="round" stroke-linejoin="round"/><path d="M362.88 438s9.23 3.28 11.62 4.17 6.55.89 6.55 2.68.3 8.05-1.19 8.34-10.13-1.49-13.11-2.68-5.06-1.19-5.66-2.38.3-4.47.3-6.26a8.3 8.3 0 011.49-3.87z" fill="#fff" stroke="#263238" stroke-linecap="round" stroke-linejoin="round"/><path d="M390.1 206s-15 3.59-16.38 5.16-10.55 17.51-11.22 18.18a40.28 40.28 0 01-4.94 3.81 7.44 7.44 0 00-2.47 3.37c-.22.9-.89 2.24-3.59 7s-9 12.79-7.18 13.24 7.63-1.35 12.57-2.47 11.22-6.29 11.22-6.29-1.11 13.46-1.11 21.54.22 35 .22 39.94-.45 9.88 0 11.45 3.59 6.5 3.59 6.5l2.47-2.91 2 4.26s2.69-3.37 13.91-7.18 16.16-5.39 19.08-5.16 18.85 9.2 19.75 9.65-.9-17.06-.9-26.93-.67-27.38-.67-27.38 7.63-37 8.52-45.1-3.14-15.49-4.71-17.73-20.64-7.41-20.64-7.41z" fill="#92e3a9" stroke="#263238" stroke-linecap="round" stroke-linejoin="round"/><path d="M368.11 248s.67-11.67 3.14-18.85M355.32 238.57s1.57 8.75 1.35 11.44 1.12.68 1.12-5.61M389.33 213.57s-6 19.84-8 29.71M376.19 275.6l-.9 11.44M374.84 295.34s-1.79 18.18-1.34 26.48" fill="none" stroke="#263238" stroke-linecap="round" stroke-miterlimit="10"/><path d="M350.83 235.2a24.87 24.87 0 01-4.26 8.53c-3.37 4.49-4.64 5.16-6.66 5.39s-4.56-3.14-5.24-4.49-1.34 0-.67 4.49 6.51 9 9.65 9 8.08-6.28 9.2-9.42a22.39 22.39 0 001.12-9.88c-.45-2.49-.45-4.51-3.14-3.62z" fill="#92e3a9" stroke="#263238" stroke-linecap="round" stroke-linejoin="round"/><path d="M355.09 200.2s4.49-4.27 5.39-5.39 1.8-6.28 2-7.85 2.88-5.7 2.9-6.44-1.55-1.42-2.68-.07a27.31 27.31 0 00-2.24 3.81c-.45.68-1.79.45-1.79.45s.14-1.2.37-2.54 2.71-5.12 3.61-6.47.12-5-1.93-2.28-6.09 7.7-6.09 7.7-6.51 8.08-7.41 10.1-.9 5.39-.9 7.41.68 1.12-.45 4.71-7.4 19.07-10.09 25.81-3.59 11.66-2.25 14.36 5.39 7 7.63 6.5 7.86-8.07 9-10.77a18.6 18.6 0 001.12-7.4c0-2-1.12-15 0-19.75s3.81-11.89 3.81-11.89z" fill="#fff" stroke="#263238" stroke-linecap="round" stroke-linejoin="round"/><path d="M348.81 192.57l1.12-.82a8 8 0 001.92 1.59 3.3 3.3 0 003.59-.92l.33-.53 1.79-2 1.68-1.84a2.13 2.13 0 00.54-1.58 5.62 5.62 0 00-.82-2.73c-.49-.65-2.29-4.84-3.42-5.07s-2.46 2.47-2.46 2.47a11 11 0 00-2.92 2.47 9.63 9.63 0 00-.9 1.8s-2.92 1.57-3.14 3.59a53.23 53.23 0 00.46 7.62" fill="#fff" stroke="#263238" stroke-linecap="round" stroke-linejoin="round"/><path d="M353.61 181.46s4.34 5.6 4.68 7.61M349.68 185.31s4.66 3.05 6.09 6.58" fill="none" stroke="#263238" stroke-linecap="round" stroke-linejoin="round"/><path fill="#92e3a9" stroke="#263238" stroke-linecap="round" stroke-linejoin="round" d="M392.78 203.43l-3.65 2.43-1.42 9.33 1.62-1.62 3.24-8.11.21-2.03z"/><path d="M368 174.43s-.21 5.07.81 7.1 3.24 6.29 3.24 8.31a13.93 13.93 0 003 7.91c2.23 3 7.3 8.11 9.74 8.11s7.09-4.25 7.09-4.25l.61 3.85-2.63 7.91s8.92-6.69 11.56-9.13 5.67-8.52 5.67-8.52L401.9 185a12.63 12.63 0 002.23-6.49c.2-3.86-.2-2.84-.61-5.27s-4.86-8.52-10.74-12-16.43-1.82-20.49.41-4.29 12.78-4.29 12.78z" fill="#fff" stroke="#263238" stroke-linecap="round" stroke-linejoin="round"/><path d="M395.75 208.93l-1.58-1 1.79-8.68-4 2.35.61 3.85-2.63 7.91s2.85-2.13 5.81-4.43z" fill="#263238" stroke="#263238" stroke-linecap="round" stroke-linejoin="round"/><path d="M374.73 181.94l1.82 3s.61 6.49 1 7.7 2.84 1.22 4.05.41M379.8 196.54s6.08 1.62 7.7-5.48M373.51 181.33s-2.23.2-2.84 1.62M378.78 179.7a6.72 6.72 0 016.7-.4" fill="none" stroke="#263238" stroke-linecap="round" stroke-linejoin="round"/><path d="M384 183.85c.2.81 0 1.57-.52 1.69s-1.05-.44-1.25-1.26 0-1.57.52-1.69 1.08.41 1.25 1.26zM374.7 186.28c.2.81 0 1.57-.52 1.69s-1.05-.44-1.25-1.25 0-1.58.52-1.7 1.05.44 1.25 1.26z" fill="#263238"/><path d="M372.5 155s-2.23 2.84-4.26 2.64-6.49-2.64-9.33 1.22-1.82 8.31 1.62 9.33 3.25 2.83 5.88 4.25 6.49 2.64 9.74-1.62a10.08 10.08 0 0111.76-3.24c3 1.42 1.62 3.44 2.64 5.47a10.66 10.66 0 003 3.45s.4 2.43 1 2.84 1.83 1 2-.41-.2-2.23.61-3.65a3.26 3.26 0 012.84-1.82c1.21-.2 3.65 1.21 3.65 1.21a43.57 43.57 0 001-8.92c0-4.66-2.23-9.73-7.91-13.38s-15.21-1.83-18.05-1-6.19 3.63-6.19 3.63z" fill="#8a8a8a" stroke="#263238" stroke-linecap="round" stroke-linejoin="round"/><path d="M388.92 165.31a43.34 43.34 0 00-8.51-.21c-3.86.41-5.28 1.42-5.68 2s.2 7.3 2.43 9.13a8.28 8.28 0 009.13.4 11.56 11.56 0 004.26-7.5c.2-2-.41-3.82-1.63-3.82z" fill="#263238" stroke="#263238" stroke-linecap="round" stroke-linejoin="round"/><path fill="none" stroke="#263238" stroke-linecap="round" stroke-linejoin="round" d="M389.73 165.51l9.53 8.11M374.73 167.13l-3.25.81"/><path d="M372.9 171s-.4-3.24-3.44-3.24-8.32 3.24-8.72 5.68 1.82 5.88 4.66 7.1 6.29-1.83 6.89-3.05a11.14 11.14 0 00.61-6.49z" fill="#263238" stroke="#263238" stroke-linecap="round" stroke-linejoin="round"/><path fill="#92e3a9" stroke="#263238" stroke-linecap="round" stroke-linejoin="round" d="M407.58 194.1l-14.8 14.6 3.44 5.48L411.03 201l-3.45-6.9z"/><path fill="#263238" stroke="#263238" stroke-linecap="round" stroke-linejoin="round" d="M312.21 244.34l10.9 17.53 8.06.24-10.43-18.72-8.53.95z"/><path d="M391.6 256s-27.25 5.69-34.83 5.92-12.8.48-12.8.48-3.8-4.27-6.4-6.88-7.59-1.65-7.59-1.65-5.92.23-7.58.23-5.93 1.19-5.93 2.13.95 1.43 2.37 1.43h4.74l3.32.95a55.57 55.57 0 00-6.63 1.42c-.95.47 0 2.6 0 2.6l.94.95 1 1.9 1.19.95s0 1.18 2.37 2.13 10.66 1.42 12.09 1.42h3.79s22 2.61 27 3.32 23 1.18 27 .47 5.93-.23 6.88-1.89-4.27-12.8-5.69-14.46-5.24-1.42-5.24-1.42z" fill="#fff" stroke="#263238" stroke-linecap="round" stroke-linejoin="round"/><path fill="none" stroke="#263238" stroke-linecap="round" stroke-linejoin="round" d="M321.21 263.53l7.35-.47M323.35 266.38l7.11.47"/><path d="M412.7 218.26s-5.93 12.57-7.59 17.78-2.6 6.64-2.13 8.53a3.35 3.35 0 01-.71 3.08s-1.9 1.9-1.9 2.61-2.37.24-.23 4.74 6.16 13.27 7.34 15.17a4.17 4.17 0 005.69 1.42c2.13-1.18 7.82-4 8.53-8.06s.71-8.06 1.66-9.71 7.82-14.23 9.72-21.1 2.84-11.14 1.18-15.64-4.74-5.21-4.74-5.21" fill="#92e3a9" stroke="#263238" stroke-linecap="round" stroke-linejoin="round"/><path d="M400.37 250.26S410.8 265.9 411.51 268s.48 3.55-.47 4.5-7.82 3.55-9.72 3.55-2.61-3.08-2.61-4.5-9.24-15.88-9.24-15.88a14 14 0 011.66-3.32c.71-.67 9.24-2.09 9.24-2.09z" fill="#92e3a9" stroke="#263238" stroke-linecap="round" stroke-linejoin="round"/><path d="M412.37 258.64a7.18 7.18 0 012.22 2.76M402.27 251.44s4.44 2.73 8 5.48M404.17 250.5s9.24 1.42 10.19 3.55" fill="none" stroke="#263238" stroke-linecap="round" stroke-linejoin="round"/></g></svg>