<svg width="65" height="64" viewBox="0 0 65 64" fill="none" xmlns="http://www.w3.org/2000/svg">
<rect x="8.5" y="8" width="48" height="48" rx="24" fill="#043F2D"/>
<rect x="4.5" y="4" width="56" height="56" rx="28" stroke="#01402D" stroke-opacity="0.18" stroke-width="8"/>
<path d="M25.5 35.75V35H24V35.75C24 37.1424 24.5531 38.4777 25.5377 39.4623C26.5223 40.4469 27.8576 41 29.25 41H31.5V39.5H29.25C28.2554 39.5 27.3016 39.1049 26.5983 38.4017C25.8951 37.6984 25.5 36.7446 25.5 35.75ZM39 28.25V29H40.5V28.25C40.5 26.8576 39.9469 25.5223 38.9623 24.5377C37.9777 23.5531 36.6424 23 35.25 23H33V24.5H35.25C35.7425 24.5 36.2301 24.597 36.6851 24.7855C37.14 24.9739 37.5534 25.2501 37.9017 25.5984C38.2499 25.9466 38.5261 26.36 38.7145 26.8149C38.903 27.2699 39 27.7575 39 28.25ZM29.25 28.25H24.75C24.1533 28.25 23.581 28.4871 23.159 28.909C22.7371 29.331 22.5 29.9033 22.5 30.5V32H24V30.5C24 30.3011 24.079 30.1103 24.2197 29.9697C24.3603 29.829 24.5511 29.75 24.75 29.75H29.25C29.4489 29.75 29.6397 29.829 29.7803 29.9697C29.921 30.1103 30 30.3011 30 30.5V32H31.5V30.5C31.5 29.9033 31.2629 29.331 30.841 28.909C30.419 28.4871 29.8467 28.25 29.25 28.25ZM27 27.5C27.5933 27.5 28.1734 27.3241 28.6667 26.9944C29.1601 26.6648 29.5446 26.1962 29.7716 25.6481C29.9987 25.0999 30.0581 24.4967 29.9424 23.9147C29.8266 23.3328 29.5409 22.7982 29.1213 22.3787C28.7018 21.9591 28.1672 21.6734 27.5853 21.5576C27.0033 21.4419 26.4001 21.5013 25.8519 21.7284C25.3038 21.9554 24.8352 22.3399 24.5056 22.8333C24.1759 23.3266 24 23.9067 24 24.5C24 25.2957 24.3161 26.0587 24.8787 26.6213C25.4413 27.1839 26.2044 27.5 27 27.5ZM27 23C27.2967 23 27.5867 23.088 27.8334 23.2528C28.08 23.4176 28.2723 23.6519 28.3858 23.926C28.4994 24.2001 28.5291 24.5017 28.4712 24.7926C28.4133 25.0836 28.2704 25.3509 28.0607 25.5607C27.8509 25.7704 27.5836 25.9133 27.2926 25.9712C27.0017 26.0291 26.7001 25.9994 26.426 25.8858C26.1519 25.7723 25.9176 25.58 25.7528 25.3334C25.588 25.0867 25.5 24.7967 25.5 24.5C25.5 24.1022 25.658 23.7206 25.9393 23.4393C26.2206 23.158 26.6022 23 27 23ZM41.25 38.75H36.75C36.1533 38.75 35.581 38.9871 35.159 39.409C34.7371 39.831 34.5 40.4033 34.5 41V42.5H36V41C36 40.8011 36.079 40.6103 36.2197 40.4697C36.3603 40.329 36.5511 40.25 36.75 40.25H41.25C41.4489 40.25 41.6397 40.329 41.7803 40.4697C41.921 40.6103 42 40.8011 42 41V42.5H43.5V41C43.5 40.4033 43.2629 39.831 42.841 39.409C42.419 38.9871 41.8467 38.75 41.25 38.75ZM36 35C36 35.5933 36.1759 36.1734 36.5056 36.6667C36.8352 37.1601 37.3038 37.5446 37.8519 37.7716C38.4001 37.9987 39.0033 38.0581 39.5853 37.9424C40.1672 37.8266 40.7018 37.5409 41.1213 37.1213C41.5409 36.7018 41.8266 36.1672 41.9424 35.5853C42.0581 35.0033 41.9987 34.4001 41.7716 33.852C41.5446 33.3038 41.1601 32.8352 40.6667 32.5056C40.1734 32.1759 39.5933 32 39 32C38.2044 32 37.4413 32.3161 36.8787 32.8787C36.3161 33.4413 36 34.2044 36 35ZM40.5 35C40.5 35.2967 40.412 35.5867 40.2472 35.8334C40.0824 36.08 39.8481 36.2723 39.574 36.3858C39.2999 36.4994 38.9983 36.5291 38.7074 36.4712C38.4164 36.4133 38.1491 36.2704 37.9393 36.0607C37.7296 35.8509 37.5867 35.5836 37.5288 35.2926C37.4709 35.0017 37.5006 34.7001 37.6142 34.426C37.7277 34.1519 37.92 33.9176 38.1666 33.7528C38.4133 33.588 38.7033 33.5 39 33.5C39.3978 33.5 39.7794 33.658 40.0607 33.9393C40.342 34.2206 40.5 34.6022 40.5 35Z" fill="white"/>
</svg>
