<svg width="64" height="64" viewBox="0 0 64 64" fill="none" xmlns="http://www.w3.org/2000/svg">
<rect x="8" y="8" width="48" height="48" rx="24" fill="#043F2D"/>
<rect x="4" y="4" width="56" height="56" rx="28" stroke="#01402D" stroke-opacity="0.18" stroke-width="8"/>
<path d="M26.0944 31.2288C26.0322 30.8282 26 30.4179 26 30C26 25.5817 29.6052 22 34.0526 22C38.4999 22 42.1052 25.5817 42.1052 30C42.1052 30.9981 41.9213 31.9535 41.5852 32.8345C41.5154 33.0175 41.4804 33.109 41.4646 33.1804C41.4489 33.2512 41.4428 33.301 41.4411 33.3735C41.4394 33.4466 41.4493 33.5272 41.4692 33.6883L41.8717 36.9585C41.9153 37.3125 41.9371 37.4895 41.8782 37.6182C41.8266 37.731 41.735 37.8205 41.6211 37.8695C41.4911 37.9254 41.3146 37.8995 40.9617 37.8478L37.7765 37.3809C37.6101 37.3565 37.527 37.3443 37.4512 37.3448C37.3763 37.3452 37.3245 37.3507 37.2511 37.3661C37.177 37.3817 37.0823 37.4172 36.893 37.4881C36.0097 37.819 35.0524 38 34.0526 38C33.6344 38 33.2237 37.9683 32.8227 37.9073M27.6316 42C30.5965 42 33 39.5376 33 36.5C33 33.4624 30.5965 31 27.6316 31C24.6667 31 22.2632 33.4624 22.2632 36.5C22.2632 37.1106 22.3603 37.6979 22.5395 38.2467C22.6153 38.4787 22.6532 38.5947 22.6657 38.6739C22.6786 38.7567 22.6809 38.8031 22.6761 38.8867C22.6714 38.9668 22.6514 39.0573 22.6113 39.2383L22 42L24.9948 41.591C25.1583 41.5687 25.24 41.5575 25.3114 41.558C25.3865 41.5585 25.4264 41.5626 25.5001 41.5773C25.5701 41.5912 25.6742 41.6279 25.8823 41.7014C26.4306 41.8949 27.0191 42 27.6316 42Z" stroke="white" stroke-width="2" stroke-linecap="round" stroke-linejoin="round"/>
</svg>
